<svg viewBox="0 0 69 32" fill="none" xmlns="http://www.w3.org/2000/svg" xmlns:xlink="http://www.w3.org/1999/xlink" x="0" y="0"><defs><filter id="filter22_i_2001_4" x="0" y="0" width="32" height="32" filterUnits="userSpaceOnUse" color-interpolation-filters="sRGB">
<feFlood flood-opacity="0" result="BackgroundImageFix"/>
<feBlend mode="normal" in="SourceGraphic" in2="BackgroundImageFix" result="shape"/>
<feColorMatrix in="SourceAlpha" type="matrix" values="0 0 0 0 0 0 0 0 0 0 0 0 0 0 0 0 0 0 127 0" result="hardAlpha"/>
<feOffset dy="2"/>
<feComposite in2="hardAlpha" operator="arithmetic" k2="-1" k3="1"/>
<feColorMatrix type="matrix" values="0 0 0 0 1 0 0 0 0 1 0 0 0 0 1 0 0 0 0.2 0"/>
<feBlend mode="overlay" in2="shape" result="effect1_innerShadow_2001_4"/>
</filter><filter id="filter23_i_2001_4" x="37" y="0" width="32" height="32" filterUnits="userSpaceOnUse" color-interpolation-filters="sRGB">
<feFlood flood-opacity="0" result="BackgroundImageFix"/>
<feBlend mode="normal" in="SourceGraphic" in2="BackgroundImageFix" result="shape"/>
<feColorMatrix in="SourceAlpha" type="matrix" values="0 0 0 0 0 0 0 0 0 0 0 0 0 0 0 0 0 0 127 0" result="hardAlpha"/>
<feOffset dy="2"/>
<feComposite in2="hardAlpha" operator="arithmetic" k2="-1" k3="1"/>
<feColorMatrix type="matrix" values="0 0 0 0 1 0 0 0 0 1 0 0 0 0 1 0 0 0 0.2 0"/>
<feBlend mode="plus-lighter" in2="shape" result="effect1_innerShadow_2001_4"/>
</filter><linearGradient id="paint18_linear_2001_4" x1="53" y1="0" x2="53" y2="32" gradientUnits="userSpaceOnUse">
<stop stop-color="white" stop-opacity="0"/>
<stop offset="1" stop-color="white"/>
</linearGradient></defs><g id="Frame 203">
<g id="Frame 195" filter="url(#filter22_i_2001_4)">
<rect x="0" y="0" width="32" height="32" rx="7" fill="#1F1732"/>
<g id="token-branded:pepes">
<g id="Group">
<path id="Vector_27" d="M8.91,20.73l0.01,-0.05c0.46,-0.44 1.53,-1.4 2.24,-1.68c0.25,-0.14 6.41,0.52 9.46,0.87c0.62,0.39 1.89,1.21 1.96,1.38c0.05,0.11 0.29,0.54 0.51,0.94c-0.94,1 -2.11,1.77 -3.4,2.25c-1.29,0.48 -2.68,0.65 -4.05,0.51c-1.37,-0.14 -2.69,-0.6 -3.86,-1.33c-1.17,-0.73 -2.15,-1.72 -2.87,-2.89z" fill="#94191B"/>
<path id="Vector_28" fill-rule="evenodd" clip-rule="evenodd" d="M11.15,19c-0.7,0.28 -1.77,1.24 -2.23,1.68l-0.01,0.05c0.72,1.18 1.71,2.17 2.87,2.9c1.17,0.73 2.49,1.18 3.86,1.32c1.37,0.15 2.76,-0.03 4.05,-0.51c1.29,-0.48 2.46,-1.25 3.4,-2.25c-0.17,-0.31 -0.35,-0.63 -0.51,-0.94c-0.07,-0.17 -1.34,-0.99 -1.96,-1.38c-3.05,-0.35 -9.21,-1.01 -9.47,-0.87zM20.51,20.17c-1.9,-0.22 -3.8,-0.42 -5.7,-0.6c-1.1,-0.11 -2.2,-0.2 -3.31,-0.27c-0.08,0 -0.16,0 -0.24,0c-0.31,0.12 -0.71,0.4 -1.12,0.72c-0.32,0.26 -0.62,0.53 -0.84,0.74c0.71,1.08 1.64,1.99 2.75,2.66c1.1,0.67 2.34,1.09 3.62,1.22c1.28,0.13 2.58,-0.02 3.8,-0.46c1.21,-0.43 2.32,-1.13 3.23,-2.04c-0.14,-0.25 -0.28,-0.5 -0.41,-0.75c-0.22,-0.17 -0.44,-0.34 -0.66,-0.49c-0.37,-0.25 -0.74,-0.49 -1.12,-0.73zM22.31,21.42c0.01,0 0.01,0 0,0z" fill="black"/>
<path id="Vector_29" d="M11.81,17.87l0.7,-0.18c-0.46,-2.52 -0.01,-5.064 0.27,-6.024l0.76,-0.611l6.85,-0.431c0.39,0.19 1.17,0.714 1.17,1.31c0,0.6 -0.48,1.221 -0.72,1.456c0.14,0.13 0.44,0.426 0.59,0.491c0.18,0.093 0.72,0.869 0.34,2.399c-0.39,1.55 -2.39,2.32 -2.6,2.4c-0.16,0.08 -0.2,0.36 -0.2,0.48l1.56,0.91c-0.06,0.34 -0.17,0.67 -0.32,0.98c-0.14,0.21 0.06,0.89 0.18,1.2l-1.31,-1l-7.07,-1.34z" fill="#67B312"/>
<path id="Vector_30" d="M20.38,10.465c0.03,-0.003 0.06,0.003 0.08,0.017c0.28,0.138 0.54,0.317 0.77,0.529c0.26,0.24 0.49,0.562 0.49,0.928c0,0.338 -0.13,0.67 -0.29,0.938c-0.1,0.183 -0.22,0.354 -0.36,0.508c0.14,0.126 0.28,0.246 0.44,0.36c0.09,0.065 0.18,0.15 0.24,0.25c0.08,0.125 0.15,0.295 0.21,0.505c0.12,0.43 0.16,1.03 -0.04,1.83c-0.2,0.82 -0.84,1.43 -1.42,1.83c-0.4,0.27 -0.82,0.49 -1.26,0.67c-0.02,0.01 -0.05,0.04 -0.08,0.13l-0.02,0.12l1.47,0.85c0.03,0.02 0.05,0.04 0.06,0.07c0.02,0.03 0.02,0.06 0.01,0.1c-0.03,0.17 -0.07,0.34 -0.12,0.51c-0.05,0.18 -0.12,0.36 -0.22,0.52c-0.01,0.05 -0.02,0.1 -0.02,0.15c0,0.08 0.02,0.19 0.04,0.3c0.04,0.22 0.12,0.46 0.18,0.61c0.01,0.03 0.01,0.06 0,0.1c-0.01,0.03 -0.03,0.06 -0.06,0.08c-0.02,0.02 -0.05,0.03 -0.09,0.03c-0.03,0 -0.06,-0.01 -0.09,-0.03l-1.28,-0.97l-7.04,-1.33c-0.03,-0.01 -0.06,-0.02 -0.08,-0.05c-0.03,-0.03 -0.04,-0.06 -0.05,-0.09l-0.2,-2.04c0,-0.04 0.01,-0.08 0.03,-0.11c0.02,-0.03 0.05,-0.05 0.09,-0.06l0.56,-0.14c-0.42,-2.51 0.02,-5.003 0.3,-5.958c0.01,-0.032 0.03,-0.061 0.05,-0.082l0.77,-0.61c0.02,-0.018 0.05,-0.03 0.08,-0.034zM19.13,19.44v0.48c0,0.08 -0.07,0.16 -0.16,0.16c-0.02,0 -0.04,0 -0.06,-0.01c-0.02,-0.01 -0.03,-0.02 -0.05,-0.04c-0.01,-0.01 -0.03,-0.03 -0.03,-0.05c-0.01,-0.02 -0.01,-0.04 -0.01,-0.06v-0.75c0,-0.11 0.01,-0.21 0.05,-0.31c0.01,-0.06 0.04,-0.13 0.09,-0.18c0.04,-0.06 0.09,-0.1 0.16,-0.13l0.04,-0.02c0.41,-0.17 0.8,-0.38 1.16,-0.62c0.56,-0.39 1.12,-0.94 1.29,-1.65c0.19,-0.75 0.15,-1.3 0.05,-1.67c-0.04,-0.15 -0.1,-0.28 -0.18,-0.41c-0.04,-0.06 -0.08,-0.1 -0.12,-0.15c-0.12,-0.068 -0.23,-0.152 -0.33,-0.247l-0.3,-0.273c-0.03,-0.031 -0.05,-0.072 -0.05,-0.115c0,-0.043 0.02,-0.084 0.05,-0.115c0.11,-0.108 0.28,-0.31 0.43,-0.556c0.14,-0.245 0.25,-0.524 0.25,-0.78c0,-0.235 -0.16,-0.475 -0.39,-0.693c-0.2,-0.181 -0.42,-0.335 -0.66,-0.458l-6.76,0.42l-0.68,0.551c-0.28,0.982 -0.7,3.456 -0.26,5.906c0.01,0.04 0,0.08 -0.02,0.11c-0.02,0.03 -0.05,0.06 -0.09,0.07l-0.57,0.15l0.18,1.78l6.96,1.32c0.02,0 0.04,0.01 0.06,0.03l0.91,0.69c-0.04,-0.18 -0.07,-0.35 -0.09,-0.53c0,-0.11 0.02,-0.23 0.08,-0.33c0.06,-0.08 0.12,-0.25 0.18,-0.44l0.09,-0.36l-1.22,-0.71z" fill="black"/>
<path id="Vector_31" d="M11.63,17.53c0.33,-0.09 0.74,0.18 0.9,0.32c-0.76,-0.55 -0.56,1.25 -0.16,1.77c0.85,0.71 4.77,1.2 6.62,1.36c0.3,0.38 0.9,1.2 0.9,1.42c-3.67,0.54 -3.93,-0.31 -5.22,-0.7c-1.28,-0.38 -3.2,-1.47 -3.29,-1.79c-0.09,-0.32 -0.15,-2.26 0.25,-2.38z" fill="#94191B"/>
<path id="Vector_32" d="M12.2,17.46c0.18,0.08 0.34,0.19 0.43,0.27c0.07,0.06 0.07,0.15 0.02,0.22c-0.02,0.03 -0.06,0.05 -0.1,0.06c-0.04,0 -0.08,-0.01 -0.11,-0.03c-0.09,-0.06 -0.13,-0.07 -0.16,-0.07c-0.01,0 -0.02,0 -0.04,0.01c-0.02,0.05 -0.04,0.1 -0.05,0.15c-0.02,0.08 -0.02,0.17 -0.02,0.26c0,0.21 0.04,0.45 0.1,0.67c0.06,0.22 0.14,0.4 0.22,0.51c0.18,0.14 0.55,0.3 1.05,0.44c0.59,0.16 1.19,0.29 1.79,0.4c1.31,0.23 2.75,0.39 3.68,0.47c0.04,0 0.08,0.02 0.11,0.06c0.29,0.38 0.57,0.77 0.82,1.18l0.08,0.17c0.02,0.06 0.03,0.11 0.03,0.17c0,0.04 -0.01,0.07 -0.03,0.1c-0.03,0.03 -0.06,0.05 -0.1,0.06c-1.85,0.27 -2.86,0.19 -3.58,-0.01c-0.31,-0.09 -0.61,-0.21 -0.9,-0.36l-0.02,-0.01c-0.26,-0.13 -0.52,-0.24 -0.8,-0.33c-1.05,-0.34 -2.04,-0.83 -2.96,-1.45c-0.13,-0.1 -0.26,-0.21 -0.37,-0.33c-0.03,-0.03 -0.05,-0.07 -0.06,-0.12c-0.04,-0.17 -0.06,-0.34 -0.07,-0.52c-0.01,-0.26 -0.01,-0.53 0,-0.79c0.01,-0.26 0.04,-0.52 0.09,-0.77c0.03,-0.11 0.06,-0.21 0.11,-0.3c0.02,-0.04 0.06,-0.08 0.09,-0.12c0.04,-0.03 0.09,-0.06 0.13,-0.07c0.22,-0.06 0.44,0 0.62,0.08zM11.67,17.68c0,0 -0.01,0.01 -0.04,0.05c-0.03,0.07 -0.06,0.14 -0.07,0.21c-0.05,0.19 -0.07,0.44 -0.08,0.71c-0.02,0.41 0,0.81 0.05,1.22l0.01,0.01l0.06,0.07c0.06,0.05 0.14,0.12 0.24,0.19c0.89,0.6 1.85,1.07 2.87,1.41c0.33,0.09 0.59,0.21 0.84,0.34l0.03,0.02c0.26,0.12 0.52,0.24 0.85,0.33c0.63,0.18 1.56,0.27 3.26,0.03c-0.24,-0.39 -0.5,-0.77 -0.78,-1.14c-1.21,-0.11 -2.43,-0.27 -3.63,-0.47c-0.61,-0.11 -1.22,-0.24 -1.82,-0.41c-0.44,-0.1 -0.85,-0.28 -1.22,-0.54c-0.13,-0.19 -0.22,-0.4 -0.27,-0.62c-0.07,-0.25 -0.11,-0.5 -0.11,-0.76c-0.01,-0.11 0,-0.23 0.02,-0.33c0.02,-0.1 0.06,-0.2 0.12,-0.28c-0.1,-0.04 -0.22,-0.06 -0.33,-0.04" fill="black"/>
<path id="Vector_33" d="M19,18.8v0.68c0.38,-0.16 1.1,0.59 1.23,0.84c0,0.59 0.36,1.52 0.48,1.63c0.11,0.11 0.27,-0.75 0.27,-1.54c-0.18,-0.55 -1.4,-1.3 -1.99,-1.61z" fill="#94191B"/>
<path id="Vector_34" d="M18.91,18.67c0.03,-0.02 0.05,-0.03 0.08,-0.03c0.03,0 0.06,0.01 0.08,0.02c0.3,0.16 0.76,0.43 1.16,0.73c0.21,0.15 0.4,0.31 0.56,0.47c0.15,0.16 0.28,0.33 0.34,0.5c0,0.4 -0.02,0.79 -0.09,1.19c-0.03,0.15 -0.05,0.29 -0.1,0.38c-0.01,0.05 -0.04,0.1 -0.08,0.14c-0.02,0.01 -0.04,0.03 -0.06,0.04c-0.02,0 -0.05,0.01 -0.07,0.01c-0.02,0 -0.05,-0.01 -0.07,-0.01c-0.02,-0.01 -0.04,-0.03 -0.06,-0.04c-0.03,-0.04 -0.06,-0.08 -0.08,-0.12c-0.24,-0.5 -0.39,-1.04 -0.44,-1.59c-0.21,-0.29 -0.49,-0.53 -0.81,-0.71c-0.11,-0.04 -0.18,-0.04 -0.21,-0.02c-0.03,0.01 -0.06,0.01 -0.08,0.01c-0.03,-0.01 -0.05,-0.01 -0.07,-0.03c-0.02,-0.01 -0.04,-0.03 -0.05,-0.06c-0.02,-0.02 -0.02,-0.04 -0.02,-0.07v-0.68c0,-0.05 0.03,-0.11 0.07,-0.13zM19.15,19.07v0.23c0.09,0.01 0.17,0.03 0.24,0.06c0.4,0.21 0.74,0.51 0.99,0.88c0.01,0.35 0.08,0.7 0.2,1.02c0.04,0.13 0.08,0.25 0.13,0.35l0.02,-0.12c0.06,-0.28 0.09,-0.67 0.09,-1.06c-0.06,-0.13 -0.15,-0.25 -0.26,-0.35c-0.16,-0.15 -0.33,-0.3 -0.51,-0.43c-0.29,-0.21 -0.59,-0.41 -0.9,-0.58" fill="black"/>
<path id="Vector_35" d="M20.29,20.86c0.04,0.02 0.08,0.04 0.1,0.08c0.02,0.03 0.03,0.07 0.02,0.12c-0.08,0.36 0.02,0.78 0.17,1.22l0.06,0.15c0.18,0.28 0.32,0.62 0.41,1.03c0,0.04 0,0.08 -0.03,0.11c-0.02,0.04 -0.05,0.06 -0.09,0.07c-0.04,0.01 -0.08,0 -0.11,-0.02c-0.04,-0.01 -0.06,-0.04 -0.08,-0.08c-0.06,-0.18 -0.12,-0.35 -0.2,-0.52l-0.02,-0.04l-0.16,-0.41c-0.24,-0.37 -0.58,-0.66 -0.99,-0.83c-0.03,-0.02 -0.05,-0.05 -0.07,-0.09c-0.01,-0.03 -0.01,-0.07 0.01,-0.11c0.01,-0.03 0.03,-0.06 0.06,-0.08c0.04,-0.02 0.07,-0.03 0.11,-0.02c0.24,0.09 0.45,0.23 0.64,0.4c-0.06,-0.28 -0.07,-0.57 -0.02,-0.86c0.01,-0.04 0.04,-0.07 0.07,-0.09c0.04,-0.03 0.08,-0.03 0.12,-0.03z" fill="black"/>
<path id="Vector_36" d="M12.62,9.92c-0.09,0.545 0.03,1.39 0.11,1.745c0.58,-0.764 4.21,-2.1 5.95,-2.673c-0.19,-0.546 -0.6,-1.692 -0.77,-1.834c-2.07,0.273 -5.18,2.085 -5.29,2.761z" fill="#94181A"/>
<path id="Vector_37" d="M17.89,7c0.05,0 0.1,0.01 0.13,0.038c0.04,0.039 0.08,0.086 0.1,0.137l0.1,0.185l0.22,0.502c0.15,0.382 0.29,0.802 0.39,1.08c0.01,0.041 0.01,0.084 -0.01,0.122c-0.02,0.038 -0.05,0.066 -0.09,0.08c-1.15,0.38 -2.28,0.8 -3.4,1.26c-0.6,0.252 -1.15,0.508 -1.59,0.743c-0.22,0.12 -0.42,0.235 -0.57,0.338c-0.15,0.111 -0.25,0.202 -0.31,0.273c-0.02,0.023 -0.05,0.041 -0.07,0.052c-0.03,0.01 -0.06,0.013 -0.09,0.007c-0.03,-0.006 -0.05,-0.02 -0.08,-0.04c-0.02,-0.02 -0.03,-0.046 -0.04,-0.074c-0.06,-0.272 -0.1,-0.547 -0.12,-0.823c-0.04,-0.327 -0.04,-0.657 0,-0.983c0.03,-0.13 0.11,-0.262 0.22,-0.382c0.11,-0.125 0.25,-0.261 0.43,-0.398c0.34,-0.273 0.82,-0.578 1.35,-0.873c1.06,-0.605 2.23,-1.026 3.43,-1.244zM12.91,9.728c-0.09,0.11 -0.13,0.18 -0.13,0.218c-0.04,0.302 -0.04,0.604 0,0.906c0.01,0.175 0.03,0.344 0.05,0.491l0.16,-0.12c0.17,-0.109 0.37,-0.234 0.6,-0.354c0.53,-0.277 1.07,-0.53 1.62,-0.759c1.07,-0.444 2.17,-0.85 3.27,-1.217c-0.16,-0.471 -0.35,-0.936 -0.54,-1.396l-0.09,-0.164c-1.14,0.222 -2.23,0.625 -3.24,1.195c-0.46,0.246 -0.9,0.526 -1.31,0.84c-0.14,0.107 -0.27,0.226 -0.38,0.355z" fill="black"/>
<path id="Vector_38" d="M18.68,8.992c0.84,-0.022 2.62,0.131 3,0.928c0,0.365 -1.02,0.955 -4.1,1.02c-2.75,0.06 -4.03,0.23 -4.61,0.491c1.05,-0.556 4.32,-2.1 5.71,-2.439z" fill="#94181A"/>
<path id="Vector_39" fill-rule="evenodd" clip-rule="evenodd" d="M18.7,9.15c-0.68,0.169 -1.82,0.632 -2.94,1.124c-0.54,0.24 -1.06,0.485 -1.53,0.703l0.21,-0.027c1.04,-0.099 2.09,-0.153 3.13,-0.164c1.07,0.009 2.13,-0.125 3.17,-0.398c0.22,-0.061 0.44,-0.159 0.64,-0.29c0.06,-0.038 0.11,-0.09 0.14,-0.152c-0.11,-0.159 -0.25,-0.287 -0.42,-0.37c-0.25,-0.123 -0.51,-0.215 -0.78,-0.274c-0.53,-0.111 -1.08,-0.162 -1.62,-0.152zM13.04,11.572c0.46,-0.168 0.95,-0.271 1.44,-0.305c0.73,-0.082 1.73,-0.137 3.1,-0.164c1.55,-0.038 2.59,-0.202 3.25,-0.41c0.33,-0.108 0.57,-0.218 0.74,-0.343c0.15,-0.115 0.27,-0.262 0.27,-0.431c0,-0.023 -0.01,-0.045 -0.02,-0.066c-0.11,-0.24 -0.33,-0.42 -0.58,-0.556c-0.27,-0.14 -0.55,-0.241 -0.85,-0.3c-0.58,-0.122 -1.16,-0.175 -1.75,-0.159c-0.71,0.175 -1.88,0.65 -3.01,1.146c-0.99,0.44 -1.97,0.911 -2.94,1.414c-0.04,0.024 -0.06,0.06 -0.07,0.1c0,0.041 0,0.083 0.02,0.118c0.05,0.07 0.14,0.093 0.22,0.054z" fill="black"/>
<path id="Vector_40" d="M18.87,12.293c-1.05,-1.08 -2.37,-0.639 -3.03,-0.366c-0.01,0.006 -0.03,0.009 -0.04,0.009c-0.02,0 -0.03,-0.003 -0.04,-0.009c-0.02,-0.005 -0.03,-0.013 -0.04,-0.024c-0.01,-0.01 -0.02,-0.022 -0.03,-0.036c0,-0.014 0,-0.028 0,-0.043c0,-0.015 0,-0.029 0,-0.043c0.01,-0.014 0.02,-0.026 0.03,-0.036c0.01,-0.011 0.02,-0.019 0.03,-0.025c0.66,-0.273 2.12,-0.78 3.28,0.41c0.01,0.01 0.02,0.023 0.02,0.037c0.01,0.014 0.01,0.029 0.01,0.045c0,0.015 0,0.03 -0.01,0.044c0,0.014 -0.01,0.027 -0.02,0.037c-0.02,0.016 -0.04,0.027 -0.06,0.031c-0.02,0.005 -0.04,0.003 -0.06,-0.006c-0.02,-0.005 -0.03,-0.014 -0.04,-0.025z" fill="black"/>
<path id="Vector_41" d="M16.76,12.156c-0.22,0.101 -0.43,0.225 -0.62,0.371c-0.01,0.01 -0.03,0.017 -0.04,0.022c-0.02,0.004 -0.03,0.005 -0.05,0.002c-0.01,-0.001 -0.03,-0.006 -0.04,-0.014c-0.01,-0.008 -0.02,-0.018 -0.03,-0.031c-0.01,-0.011 -0.02,-0.025 -0.03,-0.04c0,-0.016 0,-0.031 0,-0.047c0,-0.016 0.01,-0.03 0.02,-0.044c0.01,-0.013 0.02,-0.024 0.03,-0.033c0.14,-0.104 0.38,-0.262 0.68,-0.393c0.36,-0.179 0.77,-0.261 1.17,-0.24c0.41,0.022 0.8,0.148 1.15,0.365c0.01,0.009 0.02,0.02 0.03,0.033c0,0.013 0.01,0.027 0.01,0.042c0,0.015 0,0.03 0,0.044c-0.01,0.015 -0.01,0.028 -0.02,0.04c-0.02,0.017 -0.03,0.03 -0.05,0.037c-0.02,0.007 -0.05,0.008 -0.07,0.003c-0.01,-0.003 -0.02,-0.009 -0.04,-0.018c-0.31,-0.192 -0.66,-0.302 -1.03,-0.32c-0.37,-0.017 -0.73,0.059 -1.06,0.221zM19.24,12.948c0.05,0.032 0.07,0.103 0.03,0.158c-0.16,0.281 -0.4,0.514 -0.69,0.675c-0.28,0.16 -0.6,0.239 -0.93,0.239c-0.38,-0.01 -0.76,-0.068 -1.12,-0.183c-0.02,-0.007 -0.04,-0.02 -0.06,-0.038c-0.01,-0.018 -0.02,-0.039 -0.02,-0.062c0,-0.023 0,-0.045 0.01,-0.065c0.02,-0.02 0.03,-0.036 0.05,-0.046c0.03,-0.013 0.06,-0.016 0.09,-0.007c0.17,0.054 0.63,0.174 1.04,0.174c0.51,0 1.1,-0.234 1.44,-0.802c0.01,-0.013 0.02,-0.025 0.03,-0.034c0.01,-0.009 0.03,-0.016 0.04,-0.02c0.01,-0.004 0.03,-0.005 0.04,-0.003c0.02,0.002 0.03,0.006 0.05,0.014z" fill="black"/>
<path id="Vector_42" d="M18.43,11.982c-0.58,0 -1.62,0.818 -2.07,1.222c0.07,0.115 0.47,0.295 0.97,0.295c1.64,0 1.87,-0.404 1.87,-0.791c0,-0.382 -0.39,-0.726 -0.77,-0.726z" fill="white"/>
<path id="Vector_43" d="M16.53,13.204c0.25,0.117 0.53,0.179 0.8,0.18c0.82,0 1.26,-0.099 1.5,-0.235c0.09,-0.046 0.16,-0.118 0.21,-0.207c0.03,-0.073 0.05,-0.154 0.05,-0.235c-0.01,-0.081 -0.03,-0.16 -0.06,-0.234c-0.03,-0.073 -0.08,-0.138 -0.14,-0.192c-0.13,-0.116 -0.29,-0.182 -0.46,-0.185c-0.12,0.001 -0.27,0.042 -0.46,0.125c-0.18,0.077 -0.37,0.191 -0.56,0.317c-0.31,0.202 -0.6,0.424 -0.88,0.666zM17.88,12.014c0.19,-0.087 0.38,-0.147 0.55,-0.147c0.23,0.003 0.44,0.093 0.6,0.25c0.17,0.148 0.28,0.36 0.28,0.59c0,0.116 -0.02,0.232 -0.07,0.338c-0.07,0.128 -0.18,0.232 -0.31,0.3c-0.29,0.164 -0.78,0.273 -1.6,0.273c-0.32,-0.002 -0.63,-0.077 -0.92,-0.218c-0.06,-0.031 -0.11,-0.078 -0.15,-0.136c-0.01,-0.022 -0.02,-0.049 -0.01,-0.075c0,-0.026 0.01,-0.05 0.03,-0.067c0.32,-0.282 0.65,-0.541 1.01,-0.775c0.19,-0.131 0.4,-0.246 0.6,-0.333zM21.02,11.212c-0.19,-0.273 -0.53,-0.404 -1.04,-0.36c-0.2,0.016 -0.47,0.109 -0.73,0.229c-0.22,0.099 -0.44,0.214 -0.65,0.344c-0.01,0.008 -0.03,0.013 -0.04,0.015c-0.01,0.002 -0.03,0.001 -0.04,-0.002c-0.02,-0.004 -0.03,-0.01 -0.04,-0.019c-0.01,-0.008 -0.02,-0.019 -0.03,-0.032c-0.01,-0.013 -0.02,-0.027 -0.02,-0.042c0,-0.015 0,-0.031 0,-0.046c0.01,-0.015 0.01,-0.029 0.02,-0.041c0.01,-0.012 0.02,-0.023 0.04,-0.03c0.14,-0.092 0.4,-0.234 0.67,-0.354c0.25,-0.125 0.52,-0.21 0.79,-0.251c0.57,-0.044 1,0.092 1.26,0.458c0.01,0.019 0.02,0.041 0.02,0.064c0,0.023 -0.01,0.045 -0.02,0.064c-0.01,0.012 -0.02,0.023 -0.03,0.03c-0.01,0.009 -0.03,0.015 -0.04,0.018c-0.02,0.003 -0.03,0.003 -0.05,0c-0.01,-0.002 -0.02,-0.007 -0.03,-0.015c-0.02,-0.008 -0.03,-0.018 -0.04,-0.03z" fill="black"/>
<path id="Vector_44" d="M20.44,10.76c0,0.014 0,0.029 0,0.044c-0.01,0.014 -0.01,0.028 -0.02,0.04c-0.01,0.013 -0.02,0.023 -0.03,0.032c-0.01,0.008 -0.03,0.013 -0.04,0.015c-0.64,0.184 -1.21,0.55 -1.65,1.053c-0.01,0.012 -0.02,0.023 -0.03,0.03c-0.02,0.008 -0.03,0.012 -0.05,0.013c-0.01,0.001 -0.03,-0.002 -0.04,-0.007c-0.02,-0.006 -0.03,-0.014 -0.04,-0.025c-0.02,-0.014 -0.03,-0.033 -0.04,-0.055c0,-0.021 0,-0.044 0,-0.065c0.01,-0.014 0.02,-0.027 0.03,-0.038c0.46,-0.54 1.08,-0.931 1.77,-1.124c0.01,-0.004 0.03,-0.005 0.04,-0.003c0.02,0.003 0.03,0.008 0.05,0.016c0.01,0.009 0.02,0.019 0.03,0.032c0.01,0.013 0.01,0.027 0.02,0.042zM21.06,12.97c0.05,0.027 0.07,0.098 0.04,0.153c-0.17,0.327 -0.51,0.535 -0.84,0.655c-0.29,0.111 -0.59,0.177 -0.9,0.196c-0.01,0.001 -0.03,-0.001 -0.04,-0.006c-0.02,-0.005 -0.03,-0.013 -0.04,-0.023c-0.01,-0.009 -0.02,-0.021 -0.03,-0.034c0,-0.014 -0.01,-0.028 -0.01,-0.043c0,-0.015 0,-0.03 0.01,-0.044c0,-0.014 0.01,-0.027 0.02,-0.037c0.01,-0.011 0.02,-0.021 0.04,-0.027c0.01,-0.007 0.03,-0.01 0.04,-0.01c0.2,-0.01 0.52,-0.06 0.84,-0.18c0.29,-0.093 0.55,-0.287 0.72,-0.55c0,-0.014 0.01,-0.026 0.02,-0.036c0.01,-0.01 0.03,-0.018 0.04,-0.022c0.01,-0.005 0.03,-0.007 0.05,-0.005c0.01,0.001 0.02,0.006 0.04,0.013z" fill="black"/>
<path id="Vector_45" d="M21.31,12.73c0.01,0.013 0.01,0.027 0.01,0.042c0,0.015 0,0.029 -0.01,0.043c0,0.014 -0.01,0.027 -0.02,0.038c-0.01,0.01 -0.02,0.019 -0.04,0.024c-0.39,0.191 -0.82,0.246 -1.2,0.24c-0.3,-0.006 -0.61,-0.054 -0.91,-0.142c-0.02,-0.006 -0.04,-0.019 -0.05,-0.037c-0.02,-0.018 -0.03,-0.04 -0.03,-0.063c0,-0.019 0,-0.038 0.01,-0.055c0.01,-0.017 0.02,-0.032 0.04,-0.044c0.01,-0.012 0.03,-0.019 0.05,-0.023c0.02,-0.003 0.03,-0.002 0.05,0.004c0.17,0.055 0.49,0.126 0.84,0.131c0.36,0.011 0.76,-0.044 1.11,-0.218c0.02,-0.011 0.04,-0.015 0.06,-0.012c0.02,0.003 0.05,0.013 0.06,0.029c0.01,0.01 0.02,0.022 0.03,0.037z" fill="black"/>
<path id="Vector_46" d="M20.78,11.01c-0.71,0.196 -1.33,0.627 -1.76,1.223c0.6,0.523 1.75,0.37 2.25,0.223c0.09,-0.043 0.25,-0.223 0.25,-0.59c0,-0.452 -0.5,-0.79 -0.74,-0.856z" fill="white"/>
<path id="Vector_47" d="M20.75,10.896c0.02,-0.005 0.04,-0.005 0.06,0c0.14,0.043 0.35,0.158 0.51,0.316c0.16,0.164 0.31,0.387 0.31,0.655c0,0.398 -0.18,0.622 -0.3,0.693c-0.37,0.235 -0.8,0.34 -1.24,0.296c-0.43,-0.044 -0.83,-0.233 -1.14,-0.536c-0.03,-0.018 -0.04,-0.045 -0.04,-0.073c-0.01,-0.029 0,-0.057 0.02,-0.08c0.19,-0.26 0.41,-0.493 0.67,-0.693c0.31,-0.246 0.71,-0.48 1.15,-0.578zM19.18,12.21c0.26,0.19 0.63,0.261 1.01,0.272c0.35,0.003 0.7,-0.041 1.04,-0.13c0.05,-0.033 0.18,-0.175 0.18,-0.486c0,-0.18 -0.1,-0.355 -0.25,-0.491c-0.11,-0.11 -0.24,-0.196 -0.39,-0.251c-0.39,0.092 -0.74,0.3 -1.03,0.529c-0.21,0.167 -0.4,0.353 -0.56,0.557zM17.91,14.1c-0.42,0.17 -0.94,0.15 -1.66,-0.139c-0.02,-0.005 -0.03,-0.008 -0.05,-0.008c-0.01,0.001 -0.03,0.004 -0.04,0.01c-0.02,0.006 -0.03,0.015 -0.04,0.026c-0.01,0.011 -0.02,0.021 -0.02,0.041c-0.01,0.03 -0.01,0.06 0,0.08c0.01,0.03 0.03,0.05 0.06,0.06c0.76,0.3 1.33,0.34 1.83,0.15c0.49,-0.2 0.88,-0.604 1.28,-1.139c0.01,-0.011 0.02,-0.025 0.02,-0.039c0,-0.015 0,-0.03 0,-0.045c0,-0.015 -0.01,-0.029 -0.01,-0.042c-0.01,-0.013 -0.02,-0.024 -0.03,-0.032c-0.02,-0.01 -0.03,-0.018 -0.04,-0.023c-0.02,-0.004 -0.04,-0.006 -0.05,-0.004c-0.02,0.002 -0.03,0.008 -0.04,0.016c-0.02,0.008 -0.03,0.019 -0.04,0.032c-0.38,0.53 -0.74,0.895 -1.17,1.056z" fill="black"/>
<path id="Vector_48" fill-rule="evenodd" clip-rule="evenodd" d="M18.16,13.455c0.34,0 0.61,-0.235 0.61,-0.518c0,-0.29 -0.27,-0.524 -0.61,-0.524c-0.33,0 -0.61,0.234 -0.61,0.524c0,0.283 0.28,0.518 0.61,0.518M17.92,13.182c0.01,0.001 0.03,-0.002 0.05,-0.008c0.02,-0.007 0.03,-0.017 0.04,-0.03c0.02,-0.012 0.03,-0.028 0.03,-0.045c0.01,-0.017 0.01,-0.035 0.01,-0.053c0,-0.036 -0.01,-0.071 -0.04,-0.097c-0.02,-0.025 -0.06,-0.039 -0.09,-0.039c-0.04,0 -0.07,0.014 -0.1,0.039c-0.03,0.026 -0.04,0.061 -0.04,0.097c0,0.076 0.06,0.136 0.14,0.136zM18.14,12.822c0,0.05 -0.04,0.087 -0.09,0.087c-0.02,0 -0.04,-0.009 -0.06,-0.025c-0.02,-0.016 -0.03,-0.038 -0.03,-0.062c0,-0.014 0,-0.028 0,-0.042c0,-0.014 0.01,-0.027 0.02,-0.038c0.01,-0.011 0.02,-0.019 0.03,-0.025c0.01,-0.006 0.03,-0.01 0.04,-0.01c0.01,0 0.03,0.003 0.04,0.009c0.01,0.006 0.02,0.015 0.03,0.026c0.01,0.011 0.02,0.024 0.02,0.038c0,0.014 0,0.028 0,0.042zM18.19,13.139c0.05,0 0.09,-0.044 0.09,-0.093c0,-0.014 0,-0.028 0,-0.042c-0.01,-0.014 -0.01,-0.027 -0.02,-0.038c-0.01,-0.011 -0.02,-0.02 -0.03,-0.027c-0.02,-0.006 -0.03,-0.009 -0.04,-0.009c-0.02,0 -0.03,0.003 -0.04,0.009c-0.02,0.007 -0.03,0.016 -0.04,0.027c-0.01,0.011 -0.01,0.024 -0.01,0.038c-0.01,0.014 -0.01,0.028 0,0.042c0,0.012 0,0.025 0,0.036c0.01,0.012 0.01,0.022 0.02,0.031c0.01,0.008 0.02,0.015 0.03,0.02c0.01,0.004 0.03,0.006 0.04,0.006zM20.55,12.506c0.34,0 0.61,-0.235 0.61,-0.524c0,-0.289 -0.27,-0.519 -0.61,-0.519c-0.33,0 -0.6,0.23 -0.6,0.519c0,0.289 0.27,0.524 0.6,0.524zM20.31,12.233c0.03,-0.001 0.07,-0.015 0.09,-0.041c0.03,-0.025 0.04,-0.06 0.04,-0.096c0,-0.027 -0.01,-0.053 -0.02,-0.075c-0.02,-0.022 -0.04,-0.04 -0.06,-0.05c-0.03,-0.01 -0.05,-0.013 -0.08,-0.007c-0.03,0.005 -0.05,0.018 -0.07,0.037c-0.02,0.019 -0.03,0.043 -0.04,0.069c0,0.027 0,0.054 0.01,0.079c0.01,0.024 0.03,0.046 0.05,0.061c0.02,0.015 0.05,0.023 0.08,0.023zM20.58,11.823c0,0.012 0,0.025 -0.01,0.036c0,0.012 -0.01,0.022 -0.02,0.031c-0.01,0.008 -0.02,0.015 -0.03,0.02c-0.01,0.004 -0.02,0.006 -0.03,0.006c-0.02,-0.005 -0.04,-0.017 -0.05,-0.033c-0.02,-0.016 -0.02,-0.036 -0.02,-0.057c0,-0.021 0,-0.041 0.02,-0.057c0.01,-0.016 0.03,-0.028 0.05,-0.033c0.05,0 0.08,0.038 0.08,0.088zM20.62,12.14c0.02,-0.005 0.04,-0.016 0.05,-0.032c0.02,-0.017 0.02,-0.037 0.02,-0.058c0,-0.021 0,-0.041 -0.02,-0.057c-0.01,-0.017 -0.03,-0.028 -0.05,-0.033c-0.01,0 -0.02,0.002 -0.03,0.006c-0.01,0.005 -0.03,0.012 -0.03,0.02c-0.01,0.009 -0.02,0.019 -0.02,0.031c-0.01,0.011 -0.01,0.024 -0.01,0.036c0,0.049 0.04,0.087 0.09,0.087z" fill="black"/>
<path id="Vector_49" d="M21.43,14.09c0.88,0 1.06,0.31 1.04,0.47c0,0.22 -0.18,0.37 -0.28,0.41c0.13,0.08 0.37,0.29 0.37,0.53c0,0.92 -1.92,0.59 -2.97,0.59c-1.06,0 -2.53,0.9 -2.84,0.9c-0.32,0 -0.79,-0.16 -0.79,-0.62c0,-1.4 4.37,-2.28 5.47,-2.28z" fill="#A24A43"/>
<path id="Vector_50" d="M18.23,14.56c1.04,-0.35 2.11,-0.56 3.2,-0.63c0.46,0 0.76,0.08 0.94,0.21c0.19,0.12 0.28,0.29 0.25,0.43c0,0.15 -0.06,0.3 -0.17,0.4l0.09,0.1c0.09,0.11 0.18,0.25 0.18,0.43c0,0.13 -0.04,0.26 -0.11,0.37c-0.07,0.11 -0.18,0.2 -0.3,0.25c-0.23,0.11 -0.53,0.16 -0.84,0.17c-0.39,0.02 -0.78,0.01 -1.18,-0.02c-0.23,-0.02 -0.47,-0.02 -0.71,-0.03c-0.49,0 -1.1,0.22 -1.63,0.44l-0.44,0.19l-0.28,0.12l-0.27,0.11c-0.07,0.03 -0.14,0.05 -0.22,0.05c-0.18,0 -0.4,-0.05 -0.59,-0.17c-0.11,-0.06 -0.2,-0.14 -0.26,-0.25c-0.06,-0.11 -0.09,-0.23 -0.09,-0.36c0,-0.43 0.34,-0.79 0.77,-1.08c0.52,-0.31 1.08,-0.56 1.66,-0.73zM16.74,15.56c-0.42,0.27 -0.63,0.55 -0.63,0.82c0,0.16 0.08,0.26 0.2,0.34c0.13,0.07 0.29,0.11 0.44,0.11c0.12,-0.04 0.24,-0.08 0.36,-0.13l0.26,-0.11l0.45,-0.2c0.55,-0.26 1.15,-0.42 1.76,-0.47c0.22,0 0.47,0.02 0.73,0.03l0.19,0.01c0.33,0.02 0.66,0.03 0.96,0.01c0.3,-0.01 0.55,-0.05 0.71,-0.14c0.07,-0.03 0.13,-0.07 0.17,-0.13c0.04,-0.07 0.06,-0.14 0.05,-0.22c0,-0.07 -0.03,-0.15 -0.09,-0.2c-0.05,-0.07 -0.12,-0.12 -0.19,-0.17c-0.02,-0.02 -0.04,-0.04 -0.05,-0.06c-0.01,-0.03 -0.02,-0.06 -0.01,-0.08c0,-0.03 0,-0.06 0.02,-0.08c0.01,-0.02 0.03,-0.04 0.06,-0.06c0.04,-0.02 0.08,-0.06 0.11,-0.1c0.03,-0.02 0.04,-0.05 0.06,-0.09c0.01,-0.03 0.01,-0.06 0.01,-0.1c0,0 0,-0.07 -0.11,-0.14c-0.11,-0.08 -0.35,-0.15 -0.77,-0.15c-0.53,0 -1.88,0.21 -3.11,0.61c-0.6,0.19 -1.17,0.43 -1.58,0.7z" fill="black"/>
<path id="Vector_51" d="M22.18,15.2c-2.61,0 -4.51,0.73 -5.11,1.09c-0.04,0.02 -0.08,0.03 -0.12,0.02c-0.04,-0.01 -0.08,-0.04 -0.1,-0.08c-0.02,-0.04 -0.02,-0.08 -0.01,-0.12c0.01,-0.04 0.03,-0.07 0.07,-0.1c0.65,-0.38 2.61,-1.13 5.27,-1.13c0.04,0 0.08,0.02 0.11,0.05c0.03,0.03 0.04,0.07 0.04,0.11c0,0.04 -0.01,0.08 -0.04,0.11c-0.03,0.03 -0.07,0.05 -0.11,0.05" fill="black"/>
</g>
</g>
</g>
<g id="Frame 194" filter="url(#filter23_i_2001_4)">
<rect x="37" y="0" width="32" height="32" rx="7" fill="#9059E1"/>
<rect x="37" y="0" width="32" height="32" rx="7" fill="url(#paint18_linear_2001_4)" fill-opacity="0.3" style="mix-blend-mode:overlay"/>
<g id="bxs:send">
<path id="Vector_52" d="M60.46,15.28l-13.46,-6.33c-0.13,-0.064 -0.28,-0.088 -0.43,-0.069c-0.15,0.018 -0.29,0.079 -0.41,0.174c-0.11,0.095 -0.2,0.221 -0.24,0.363c-0.05,0.142 -0.06,0.295 -0.02,0.44l0.96,3.839l6.14,2.303l-6.14,2.3l-0.96,3.84c-0.04,0.15 -0.03,0.3 0.01,0.44c0.05,0.15 0.14,0.27 0.25,0.37c0.12,0.09 0.26,0.15 0.41,0.17c0.15,0.02 0.3,-0.01 0.43,-0.07l13.46,-6.33c0.14,-0.07 0.25,-0.17 0.33,-0.3c0.08,-0.12 0.13,-0.27 0.13,-0.42c0,-0.15 -0.05,-0.3 -0.13,-0.42c-0.08,-0.13 -0.19,-0.23 -0.33,-0.3z" fill="white"/>
</g>
</g>
</g></svg>