<svg viewBox="0 0 12 13" fill="none" xmlns="http://www.w3.org/2000/svg" xmlns:xlink="http://www.w3.org/1999/xlink" x="0" y="0"><path id="H" d="M0.49,13c-0.12,0 -0.24,-0.043 -0.34,-0.13c-0.1,-0.087 -0.15,-0.204 -0.15,-0.353v-12.034c0,-0.136 0.05,-0.248 0.15,-0.334c0.1,-0.099 0.22,-0.149 0.34,-0.149h3.09c0.14,0 0.25,0.05 0.34,0.149c0.1,0.086 0.15,0.198 0.15,0.334v4.197h3.86v-4.197c0,-0.136 0.04,-0.248 0.13,-0.334c0.1,-0.099 0.22,-0.149 0.36,-0.149h3.09c0.14,0 0.25,0.05 0.34,0.149c0.1,0.086 0.15,0.198 0.15,0.334v12.034c0,0.136 -0.05,0.254 -0.15,0.353c-0.09,0.087 -0.2,0.13 -0.34,0.13h-3.09c-0.14,0 -0.26,-0.043 -0.36,-0.13c-0.09,-0.099 -0.13,-0.217 -0.13,-0.353v-4.308h-3.86v4.308c0,0.136 -0.05,0.254 -0.15,0.353c-0.09,0.087 -0.2,0.13 -0.34,0.13z" fill="currentColor"/></svg>