<svg viewBox="0 0 13 14" fill="none" xmlns="http://www.w3.org/2000/svg" xmlns:xlink="http://www.w3.org/1999/xlink" x="0" y="0"><path id="T" d="M4.74,14c-0.15,0 -0.29,-0.047 -0.4,-0.14c-0.1,-0.107 -0.15,-0.233 -0.15,-0.38v-9.76h-3.64c-0.15,0 -0.29,-0.047 -0.4,-0.14c-0.1,-0.107 -0.15,-0.233 -0.15,-0.38v-2.68c0,-0.147 0.05,-0.267 0.15,-0.36c0.11,-0.107 0.25,-0.16 0.4,-0.16h11.9c0.15,0 0.28,0.053 0.38,0.16c0.11,0.093 0.17,0.213 0.17,0.36v2.68c0,0.147 -0.06,0.273 -0.17,0.38c-0.1,0.093 -0.23,0.14 -0.38,0.14h-3.64v9.76c0,0.147 -0.06,0.273 -0.17,0.38c-0.1,0.093 -0.23,0.14 -0.38,0.14z" fill="currentColor"/></svg>