<svg viewBox="0 0 76 88" fill="none" xmlns="http://www.w3.org/2000/svg" xmlns:xlink="http://www.w3.org/1999/xlink" x="0" y="0"><defs><filter id="filter7_i_2001_4" x="0" y="0" width="76" height="76" filterUnits="userSpaceOnUse" color-interpolation-filters="sRGB">
<feFlood flood-opacity="0" result="BackgroundImageFix"/>
<feBlend mode="normal" in="SourceGraphic" in2="BackgroundImageFix" result="shape"/>
<feColorMatrix in="SourceAlpha" type="matrix" values="0 0 0 0 0 0 0 0 0 0 0 0 0 0 0 0 0 0 127 0" result="hardAlpha"/>
<feOffset dy="3"/>
<feComposite in2="hardAlpha" operator="arithmetic" k2="-1" k3="1"/>
<feColorMatrix type="matrix" values="0 0 0 0 1 0 0 0 0 1 0 0 0 0 1 0 0 0 0.2 0"/>
<feBlend mode="plus-lighter" in2="shape" result="effect1_innerShadow_2001_4"/>
</filter><linearGradient id="paint5_linear_2001_4" x1="38" y1="6.33299999999997" x2="38" y2="69.67499999999995" gradientUnits="userSpaceOnUse">
<stop stop-color="white" stop-opacity="0"/>
<stop offset="1" stop-color="white"/>
</linearGradient></defs><g id="Frame 143">
<g id="mdi:rhombus-split" filter="url(#filter7_i_2001_4)">
<g id="Vector_12">
<path d="M38,6.333c-1.5833,0 -3.1667,0.602 -4.465,1.869l-10.45,10.418l14.915,14.883l14.915,-14.883l-10.45,-10.418c-1.2983,-1.267 -2.8817,-1.869 -4.465,-1.869zM18.62,23.085l-10.4183,10.45c-2.5017,2.47 -2.5017,6.46 0,8.93l10.4183,10.45l14.8833,-14.915zM57.38,23.085l-14.8833,14.915l14.8833,14.915l10.4183,-10.45c2.5017,-2.47 2.5017,-6.46 0,-8.93zM38,42.497l-14.915,14.883l10.45,10.418c2.47,2.502 6.46,2.502 8.93,0l10.45,-10.418z" fill="#9059E1"/>
<path d="M38,6.333c-1.5833,0 -3.1667,0.602 -4.465,1.869l-10.45,10.418l14.915,14.883l14.915,-14.883l-10.45,-10.418c-1.2983,-1.267 -2.8817,-1.869 -4.465,-1.869zM18.62,23.085l-10.4183,10.45c-2.5017,2.47 -2.5017,6.46 0,8.93l10.4183,10.45l14.8833,-14.915zM57.38,23.085l-14.8833,14.915l14.8833,14.915l10.4183,-10.45c2.5017,-2.47 2.5017,-6.46 0,-8.93zM38,42.497l-14.915,14.883l10.45,10.418c2.47,2.502 6.46,2.502 8.93,0l10.45,-10.418z" fill="url(#paint5_linear_2001_4)" fill-opacity="0.3" style="mix-blend-mode:overlay"/>
</g>
</g>
<g id="Splitter.GG">
<path d="M5.5471,85.685c-0.8993,0 -1.6488,-0.124 -2.2484,-0.373c-0.591,-0.257 -1.0364,-0.587 -1.3362,-0.99c-0.2912,-0.412 -0.4454,-0.845 -0.4625,-1.299c0,-0.078 0.0257,-0.142 0.0771,-0.193c0.0514,-0.052 0.1156,-0.078 0.1927,-0.078h2.0429c0.1199,0 0.2141,0.022 0.2826,0.065c0.0685,0.034 0.1413,0.085 0.2184,0.154c0.0771,0.094 0.1671,0.184 0.2698,0.27c0.1028,0.077 0.2356,0.142 0.3983,0.193c0.1628,0.043 0.3512,0.064 0.5653,0.064c0.394,0 0.6981,-0.051 0.9123,-0.154c0.2141,-0.111 0.3212,-0.261 0.3212,-0.45c0,-0.146 -0.06,-0.266 -0.1799,-0.36c-0.1114,-0.095 -0.3041,-0.18 -0.5782,-0.257c-0.2741,-0.078 -0.6467,-0.159 -1.1178,-0.245c-0.6595,-0.111 -1.2291,-0.274 -1.7088,-0.489c-0.4796,-0.223 -0.8479,-0.518 -1.1049,-0.887c-0.2484,-0.377 -0.3726,-0.84 -0.3726,-1.389c0,-0.557 0.1542,-1.05 0.4625,-1.479c0.317,-0.429 0.7538,-0.763 1.3106,-1.003c0.5653,-0.241 1.2205,-0.361 1.9657,-0.361c0.6167,0 1.1606,0.082 1.6317,0.245c0.4797,0.163 0.8822,0.377 1.2077,0.643c0.3255,0.257 0.5739,0.536 0.7452,0.836c0.1713,0.3 0.2613,0.587 0.2698,0.862c0,0.077 -0.03,0.145 -0.0899,0.205c-0.0514,0.052 -0.1114,0.078 -0.1799,0.078h-2.1456c-0.1028,0 -0.1927,-0.018 -0.2698,-0.052c-0.0685,-0.034 -0.1328,-0.09 -0.1927,-0.167c-0.0429,-0.12 -0.1499,-0.227 -0.3212,-0.322c-0.1714,-0.094 -0.3898,-0.141 -0.6553,-0.141c-0.2912,0 -0.5139,0.051 -0.6681,0.154c-0.1542,0.095 -0.2313,0.236 -0.2313,0.425c0,0.128 0.0471,0.24 0.1414,0.334c0.0942,0.094 0.2612,0.18 0.501,0.257c0.2399,0.069 0.5739,0.146 1.0022,0.232c0.8137,0.12 1.469,0.291 1.9657,0.514c0.5054,0.223 0.8737,0.515 1.105,0.875c0.2312,0.36 0.3469,0.81 0.3469,1.35c0,0.609 -0.1756,1.132 -0.5268,1.57c-0.3512,0.437 -0.8351,0.776 -1.4518,1.016c-0.6082,0.231 -1.3062,0.347 -2.0943,0.347z" fill="#9059E1"/>
<path d="M10.9265,88c-0.0943,0 -0.1756,-0.034 -0.2441,-0.103c-0.06,-0.06 -0.09,-0.137 -0.09,-0.231v-8.463c0,-0.095 0.03,-0.172 0.09,-0.232c0.0685,-0.069 0.1498,-0.103 0.2441,-0.103h1.8115c0.0943,0 0.1714,0.034 0.2313,0.103c0.0685,0.06 0.1028,0.137 0.1028,0.232v0.424c0.2056,-0.257 0.4668,-0.467 0.7837,-0.63c0.3169,-0.172 0.7067,-0.257 1.1692,-0.257c0.4026,0 0.7623,0.06 1.0792,0.18c0.3255,0.12 0.6082,0.304 0.848,0.553c0.2398,0.24 0.4283,0.548 0.5653,0.926c0.1371,0.377 0.2184,0.819 0.2441,1.324c0.0086,0.181 0.0129,0.343 0.0129,0.489c0,0.146 -0.0043,0.313 -0.0129,0.502c-0.0171,0.48 -0.0942,0.904 -0.2312,1.273c-0.1371,0.369 -0.3255,0.682 -0.5653,0.939c-0.2399,0.249 -0.5225,0.437 -0.848,0.566c-0.3255,0.129 -0.6895,0.193 -1.0921,0.193c-0.394,0 -0.7409,-0.064 -1.0407,-0.193c-0.2998,-0.137 -0.5482,-0.347 -0.7452,-0.63v2.804c0,0.094 -0.0342,0.171 -0.1028,0.231c-0.0685,0.069 -0.1456,0.103 -0.2312,0.103zM14.1513,83.678c0.2227,0 0.394,-0.042 0.514,-0.128c0.1284,-0.094 0.2184,-0.219 0.2698,-0.373c0.0599,-0.163 0.0985,-0.347 0.1156,-0.553c0.0257,-0.275 0.0257,-0.549 0,-0.823c-0.0171,-0.206 -0.0557,-0.386 -0.1156,-0.541c-0.0514,-0.162 -0.1414,-0.287 -0.2698,-0.373c-0.12,-0.094 -0.2913,-0.141 -0.514,-0.141c-0.2227,0 -0.4025,0.047 -0.5396,0.141c-0.1285,0.095 -0.2227,0.219 -0.2826,0.373c-0.0514,0.155 -0.0814,0.326 -0.09,0.515c-0.0085,0.18 -0.0128,0.343 -0.0128,0.489c0,0.137 0.0043,0.295 0.0128,0.476c0.0086,0.18 0.0428,0.338 0.1028,0.475c0.0685,0.138 0.167,0.249 0.2955,0.335c0.1285,0.086 0.2998,0.128 0.5139,0.128z" fill="#9059E1"/>
<path d="M19.2325,85.556c-0.0942,0 -0.1755,-0.03 -0.2441,-0.09c-0.0599,-0.068 -0.0899,-0.15 -0.0899,-0.244v-8.463c0,-0.094 0.03,-0.172 0.0899,-0.232c0.0686,-0.068 0.1499,-0.103 0.2441,-0.103h1.9144c0.0857,0 0.1627,0.035 0.2313,0.103c0.0685,0.06 0.1028,0.138 0.1028,0.232v8.463c0,0.094 -0.0343,0.176 -0.1028,0.244c-0.0686,0.06 -0.1456,0.09 -0.2313,0.09z" fill="#9059E1"/>
<path d="M23.1472,85.556c-0.0942,0 -0.1756,-0.03 -0.2441,-0.09c-0.06,-0.068 -0.09,-0.15 -0.09,-0.244v-6.019c0,-0.095 0.03,-0.172 0.09,-0.232c0.0685,-0.069 0.1499,-0.103 0.2441,-0.103h1.9015c0.0942,0 0.1756,0.034 0.2441,0.103c0.0685,0.06 0.1028,0.137 0.1028,0.232v6.019c0,0.094 -0.0343,0.176 -0.1028,0.244c-0.0685,0.06 -0.1499,0.09 -0.2441,0.09zM23.1729,78.032c-0.0942,0 -0.1756,-0.03 -0.2441,-0.09c-0.06,-0.068 -0.09,-0.15 -0.09,-0.244v-1.351c0,-0.094 0.03,-0.176 0.09,-0.244c0.0685,-0.069 0.1499,-0.103 0.2441,-0.103h1.8501c0.0942,0 0.1756,0.034 0.2441,0.103c0.0685,0.068 0.1028,0.15 0.1028,0.244v1.351c0,0.094 -0.0343,0.176 -0.1028,0.244c-0.0685,0.06 -0.1499,0.09 -0.2441,0.09z" fill="#9059E1"/>
<path d="M30.4926,85.556c-0.5825,0 -1.0964,-0.085 -1.5418,-0.257c-0.4368,-0.171 -0.7795,-0.45 -1.0278,-0.836c-0.2399,-0.394 -0.3598,-0.913 -0.3598,-1.556v-2.071h-1.015c-0.0942,0 -0.1756,-0.03 -0.2441,-0.09c-0.06,-0.069 -0.0899,-0.15 -0.0899,-0.244v-1.299c0,-0.095 0.0299,-0.172 0.0899,-0.232c0.0685,-0.069 0.1499,-0.103 0.2441,-0.103h1.015v-2.109c0,-0.094 0.03,-0.172 0.0899,-0.232c0.0686,-0.068 0.1499,-0.103 0.2442,-0.103h1.8629c0.0942,0 0.1713,0.035 0.2313,0.103c0.0685,0.06 0.1028,0.138 0.1028,0.232v2.109h1.6188c0.0943,0 0.1713,0.034 0.2313,0.103c0.0685,0.06 0.1028,0.137 0.1028,0.232v1.299c0,0.094 -0.0343,0.175 -0.1028,0.244c-0.06,0.06 -0.137,0.09 -0.2313,0.09h-1.6188v1.852c0,0.249 0.0514,0.446 0.1542,0.592c0.1027,0.137 0.2655,0.206 0.4882,0.206h1.0792c0.0942,0 0.1713,0.034 0.2313,0.102c0.0685,0.06 0.1028,0.138 0.1028,0.232v1.402c0,0.094 -0.0343,0.176 -0.1028,0.244c-0.06,0.06 -0.1371,0.09 -0.2313,0.09z" fill="#9059E1"/>
<path d="M36.9166,85.556c-0.5824,0 -1.0964,-0.085 -1.5418,-0.257c-0.4368,-0.171 -0.7794,-0.45 -1.0278,-0.836c-0.2398,-0.394 -0.3598,-0.913 -0.3598,-1.556v-2.071h-1.015c-0.0942,0 -0.1756,-0.03 -0.2441,-0.09c-0.0599,-0.069 -0.0899,-0.15 -0.0899,-0.244v-1.299c0,-0.095 0.03,-0.172 0.0899,-0.232c0.0685,-0.069 0.1499,-0.103 0.2441,-0.103h1.015v-2.109c0,-0.094 0.03,-0.172 0.09,-0.232c0.0685,-0.068 0.1499,-0.103 0.2441,-0.103h1.863c0.0942,0 0.1713,0.035 0.2312,0.103c0.0685,0.06 0.1028,0.138 0.1028,0.232v2.109h1.6189c0.0942,0 0.1713,0.034 0.2312,0.103c0.0686,0.06 0.1028,0.137 0.1028,0.232v1.299c0,0.094 -0.0342,0.175 -0.1028,0.244c-0.0599,0.06 -0.137,0.09 -0.2312,0.09h-1.6189v1.852c0,0.249 0.0514,0.446 0.1542,0.592c0.1028,0.137 0.2655,0.206 0.4882,0.206h1.0792c0.0943,0 0.1714,0.034 0.2313,0.102c0.0685,0.06 0.1028,0.138 0.1028,0.232v1.402c0,0.094 -0.0343,0.176 -0.1028,0.244c-0.0599,0.06 -0.137,0.09 -0.2313,0.09z" fill="#9059E1"/>
<path d="M42.8396,85.685c-1.0707,0 -1.923,-0.274 -2.5568,-0.823c-0.6253,-0.558 -0.9465,-1.406 -0.9636,-2.547c0,-0.034 0,-0.077 0,-0.129c0,-0.06 0,-0.102 0,-0.128c0.0257,-0.712 0.1799,-1.312 0.4625,-1.801c0.2912,-0.497 0.6938,-0.874 1.2077,-1.132c0.5225,-0.257 1.1349,-0.385 1.8373,-0.385c0.788,0 1.439,0.158 1.9529,0.475c0.5225,0.309 0.9122,0.725 1.1692,1.248c0.2569,0.514 0.3854,1.093 0.3854,1.736v0.36c0,0.086 -0.0342,0.163 -0.1028,0.232c-0.0685,0.069 -0.1498,0.103 -0.2441,0.103h-3.9572c0,0 0,0.008 0,0.026c0,0.017 0,0.034 0,0.051c0,0.206 0.0257,0.39 0.0771,0.553c0.06,0.154 0.1499,0.279 0.2698,0.373c0.1199,0.086 0.2656,0.129 0.4369,0.129c0.1113,0 0.2055,-0.017 0.2826,-0.052c0.0771,-0.034 0.1413,-0.077 0.1927,-0.128c0.06,-0.06 0.1114,-0.116 0.1542,-0.168c0.0771,-0.077 0.1413,-0.124 0.1927,-0.141c0.0514,-0.026 0.1285,-0.039 0.2313,-0.039h2.0171c0.0771,0 0.1414,0.026 0.1928,0.078c0.0599,0.051 0.0856,0.115 0.0771,0.192c-0.0086,0.155 -0.0814,0.343 -0.2185,0.566c-0.137,0.215 -0.3426,0.425 -0.6167,0.631c-0.2655,0.205 -0.6081,0.377 -1.0278,0.514c-0.4197,0.137 -0.9037,0.206 -1.4518,0.206zM42.0301,81.453h1.5932v-0.025c0,-0.232 -0.03,-0.429 -0.0899,-0.592c-0.06,-0.163 -0.1499,-0.283 -0.2699,-0.36c-0.1199,-0.086 -0.2655,-0.129 -0.4368,-0.129c-0.1713,0 -0.3169,0.043 -0.4368,0.129c-0.1199,0.077 -0.2099,0.197 -0.2698,0.36c-0.06,0.163 -0.09,0.36 -0.09,0.592z" fill="#9059E1"/>
<path d="M47.7266,85.556c-0.0942,0 -0.1756,-0.03 -0.2441,-0.09c-0.0599,-0.068 -0.0899,-0.15 -0.0899,-0.244v-6.019c0,-0.095 0.03,-0.172 0.0899,-0.232c0.0685,-0.069 0.1499,-0.103 0.2441,-0.103h1.863c0.0942,0 0.1713,0.034 0.2313,0.103c0.0685,0.06 0.1028,0.137 0.1028,0.232v0.475c0.2569,-0.248 0.5481,-0.445 0.8736,-0.591c0.3341,-0.146 0.6981,-0.219 1.0921,-0.219h0.5782c0.0942,0 0.1756,0.034 0.2441,0.103c0.0685,0.06 0.1028,0.137 0.1028,0.232v1.659c0,0.094 -0.0343,0.176 -0.1028,0.244c-0.0685,0.069 -0.1499,0.103 -0.2441,0.103h-1.439c-0.3084,0 -0.5439,0.081 -0.7066,0.244c-0.1628,0.155 -0.2442,0.386 -0.2442,0.695v3.074c0,0.094 -0.0342,0.176 -0.1027,0.244c-0.06,0.06 -0.1371,0.09 -0.2313,0.09z" fill="#9059E1"/>
<path d="M53.2461,85.556c-0.0942,0 -0.1756,-0.03 -0.2441,-0.09c-0.06,-0.068 -0.09,-0.15 -0.09,-0.244v-1.929c0,-0.095 0.03,-0.176 0.09,-0.245c0.0685,-0.068 0.1499,-0.103 0.2441,-0.103h1.9272c0.0942,0 0.1756,0.035 0.2441,0.103c0.0685,0.069 0.1028,0.15 0.1028,0.245v1.929c0,0.094 -0.0343,0.176 -0.1028,0.244c-0.0685,0.06 -0.1499,0.09 -0.2441,0.09z" fill="white"/>
<path d="M60.7998,85.685c-0.848,0 -1.5761,-0.129 -2.1842,-0.386c-0.6082,-0.266 -1.0835,-0.66 -1.4262,-1.183c-0.3426,-0.523 -0.5267,-1.171 -0.5524,-1.942c-0.0086,-0.36 -0.0129,-0.746 -0.0129,-1.158c0,-0.42 0.0043,-0.814 0.0129,-1.183c0.0257,-0.746 0.2098,-1.372 0.5524,-1.878c0.3512,-0.506 0.8352,-0.887 1.4519,-1.145c0.6167,-0.257 1.3362,-0.386 2.1585,-0.386c0.6595,0 1.2462,0.078 1.7601,0.232c0.514,0.154 0.9508,0.364 1.3105,0.63c0.3684,0.266 0.6467,0.566 0.8352,0.9c0.197,0.326 0.2998,0.665 0.3083,1.017c0,0.077 -0.03,0.145 -0.0899,0.205c-0.0514,0.052 -0.1157,0.078 -0.1927,0.078h-2.3641c-0.0856,0 -0.1542,-0.013 -0.2056,-0.039c-0.0513,-0.034 -0.0985,-0.077 -0.1413,-0.129c-0.0428,-0.085 -0.1113,-0.184 -0.2055,-0.295c-0.0857,-0.112 -0.2099,-0.206 -0.3726,-0.283c-0.1628,-0.086 -0.3769,-0.129 -0.6424,-0.129c-0.4026,0 -0.7153,0.103 -0.938,0.309c-0.2227,0.205 -0.3426,0.531 -0.3597,0.977c-0.0257,0.72 -0.0257,1.458 0,2.212c0.0171,0.489 0.1413,0.845 0.3726,1.068c0.2398,0.214 0.561,0.321 0.9636,0.321c0.2655,0 0.5011,-0.042 0.7066,-0.128c0.2142,-0.086 0.3812,-0.219 0.5011,-0.399c0.1199,-0.189 0.1799,-0.429 0.1799,-0.72v-0.129h-0.9122c-0.0942,0 -0.1756,-0.034 -0.2441,-0.103c-0.06,-0.068 -0.09,-0.145 -0.09,-0.231v-1.196c0,-0.095 0.03,-0.172 0.09,-0.232c0.0685,-0.068 0.1499,-0.103 0.2441,-0.103h3.379c0.0942,0 0.1756,0.035 0.2441,0.103c0.0686,0.06 0.1028,0.137 0.1028,0.232v1.569c0,0.754 -0.1799,1.393 -0.5396,1.916c-0.3598,0.523 -0.8565,0.922 -1.4904,1.196c-0.6338,0.275 -1.3704,0.412 -2.2098,0.412z" fill="white"/>
<path d="M70.2601,85.685c-0.8479,0 -1.576,-0.129 -2.1841,-0.386c-0.6082,-0.266 -1.0836,-0.66 -1.4262,-1.183c-0.3426,-0.523 -0.5267,-1.171 -0.5524,-1.942c-0.0086,-0.36 -0.0129,-0.746 -0.0129,-1.158c0,-0.42 0.0043,-0.814 0.0129,-1.183c0.0257,-0.746 0.2098,-1.372 0.5524,-1.878c0.3512,-0.506 0.8352,-0.887 1.4519,-1.145c0.6167,-0.257 1.3362,-0.386 2.1584,-0.386c0.6596,0 1.2463,0.078 1.7602,0.232c0.5139,0.154 0.9508,0.364 1.3105,0.63c0.3683,0.266 0.6467,0.566 0.8352,0.9c0.197,0.326 0.2997,0.665 0.3083,1.017c0,0.077 -0.03,0.145 -0.0899,0.205c-0.0514,0.052 -0.1157,0.078 -0.1927,0.078h-2.3641c-0.0856,0 -0.1542,-0.013 -0.2056,-0.039c-0.0514,-0.034 -0.0985,-0.077 -0.1413,-0.129c-0.0428,-0.085 -0.1113,-0.184 -0.2056,-0.295c-0.0856,-0.112 -0.2098,-0.206 -0.3726,-0.283c-0.1627,-0.086 -0.3768,-0.129 -0.6424,-0.129c-0.4025,0 -0.7152,0.103 -0.9379,0.309c-0.2227,0.205 -0.3426,0.531 -0.3597,0.977c-0.0257,0.72 -0.0257,1.458 0,2.212c0.0171,0.489 0.1413,0.845 0.3726,1.068c0.2398,0.214 0.561,0.321 0.9636,0.321c0.2655,0 0.5011,-0.042 0.7066,-0.128c0.2142,-0.086 0.3812,-0.219 0.5011,-0.399c0.1199,-0.189 0.1799,-0.429 0.1799,-0.72v-0.129h-0.9122c-0.0943,0 -0.1756,-0.034 -0.2441,-0.103c-0.06,-0.068 -0.09,-0.145 -0.09,-0.231v-1.196c0,-0.095 0.03,-0.172 0.09,-0.232c0.0685,-0.068 0.1498,-0.103 0.2441,-0.103h3.379c0.0942,0 0.1756,0.035 0.2441,0.103c0.0686,0.06 0.1028,0.137 0.1028,0.232v1.569c0,0.754 -0.1799,1.393 -0.5396,1.916c-0.3598,0.523 -0.8565,0.922 -1.4904,1.196c-0.6338,0.275 -1.3705,0.412 -2.2099,0.412z" fill="white"/>
</g>
</g></svg>